<?xml version="1.0" standalone="no"?>
<!DOCTYPE svg PUBLIC "-//W3C//DTD SVG 20010904//EN"
 "http://www.w3.org/TR/2001/REC-SVG-20010904/DTD/svg10.dtd">
<svg version="1.0" xmlns="http://www.w3.org/2000/svg"
 width="832.000000pt" height="832.000000pt" viewBox="0 0 832.000000 832.000000"
 preserveAspectRatio="xMidYMid meet">
<metadata>
Created by potrace 1.14, written by Peter Selinger 2001-2017
</metadata>
<g transform="translate(0.000000,832.000000) scale(0.100000,-0.100000)"
fill="#000000" stroke="none">
<path d="M4049 8128 c-19 -5 -57 -26 -85 -46 -52 -39 -80 -88 -243 -432 -36
-74 -105 -218 -154 -320 -129 -269 -203 -420 -262 -545 -76 -159 -202 -420
-273 -565 -60 -123 -117 -213 -177 -281 -73 -82 -228 -209 -255 -209 -4 0 -10
-3 -12 -7 -4 -10 -97 -56 -167 -83 -57 -22 -148 -45 -216 -55 -22 -3 -62 -10
-90 -15 -27 -6 -72 -12 -100 -15 -27 -3 -57 -8 -65 -10 -8 -2 -35 -7 -60 -10
-25 -3 -52 -8 -60 -10 -8 -2 -37 -7 -65 -11 -59 -7 -62 -8 -185 -28 -52 -8
-113 -18 -135 -20 -22 -3 -49 -7 -60 -10 -11 -2 -41 -6 -66 -10 -25 -4 -57 -9
-70 -11 -13 -2 -159 -25 -324 -50 -165 -26 -311 -48 -325 -51 -14 -2 -43 -7
-65 -10 -22 -3 -65 -9 -95 -14 -83 -14 -111 -18 -160 -25 -90 -12 -142 -36
-196 -89 -64 -65 -88 -128 -80 -216 10 -103 23 -121 247 -335 359 -343 476
-454 509 -485 48 -45 379 -361 440 -420 26 -25 125 -119 220 -210 191 -182
269 -279 335 -415 107 -219 134 -446 85 -715 -12 -67 -13 -75 -45 -275 -14
-88 -28 -171 -30 -185 -2 -14 -7 -43 -10 -65 -3 -22 -8 -51 -10 -65 -3 -14 -7
-40 -10 -57 -3 -18 -7 -45 -10 -60 -2 -16 -11 -73 -20 -128 -8 -55 -20 -125
-25 -155 -5 -30 -17 -100 -25 -155 -22 -135 -23 -145 -29 -180 -12 -72 -55
-344 -61 -380 -3 -22 -12 -80 -21 -129 -15 -88 -16 -157 -4 -186 30 -67 50
-97 88 -130 91 -80 207 -89 333 -25 41 20 79 41 84 45 6 4 60 33 120 65 61 32
150 80 199 107 49 26 92 48 96 48 4 0 13 7 20 15 7 8 19 15 28 15 8 0 23 6 31
14 9 7 63 38 121 68 58 31 132 70 165 88 129 69 323 174 390 210 39 21 151 82
250 135 418 227 507 257 764 250 144 -4 145 -4 231 -24 127 -30 129 -30 1045
-501 1019 -524 1016 -522 1074 -528 96 -9 187 30 244 106 66 87 71 140 33 347
-14 77 -28 154 -31 170 -6 37 -23 131 -30 165 -3 14 -19 102 -35 195 -17 94
-35 190 -40 215 -5 25 -12 61 -15 80 -6 39 -22 132 -30 170 -3 14 -9 50 -15
80 -5 30 -12 69 -15 85 -5 27 -40 217 -49 270 -2 11 -23 121 -46 245 -31 167
-42 253 -43 335 -1 116 3 164 27 280 21 101 108 283 185 385 27 36 386 400
798 810 583 580 754 756 772 793 49 101 33 217 -39 300 -62 70 -122 93 -290
112 -92 11 -122 15 -185 25 -33 5 -81 12 -107 15 -26 3 -80 10 -120 15 -40 6
-93 13 -118 16 -25 2 -74 9 -110 14 -98 14 -135 19 -260 36 -63 8 -126 17
-140 19 -14 2 -63 9 -110 15 -123 16 -131 17 -290 39 -80 11 -165 22 -190 25
-25 3 -56 8 -70 10 -14 3 -52 7 -85 11 -33 3 -67 8 -75 10 -8 2 -33 6 -55 10
-172 25 -409 144 -535 268 -162 160 -107 62 -740 1312 -112 220 -250 492 -307
605 -57 113 -118 219 -134 236 -65 67 -183 98 -280 72z"/>
</g>
</svg>
